<svg width="33" height="33" viewBox="0 0 33 33" fill="none" xmlns="http://www.w3.org/2000/svg" role="presentation">
<rect x="0.275391" y="0.886902" width="32" height="32" rx="16" fill="#000000"/>
<path d="M20.7754 10.8869H17.7754C17.2231 10.8869 16.7754 11.3346 16.7754 11.8869V14.8869H20.7754C20.8891 14.8844 20.997 14.9373 21.0646 15.0288C21.1322 15.1203 21.1512 15.2389 21.1154 15.3469L20.3754 17.5469C20.3072 17.7488 20.1185 17.8853 19.9054 17.8869H16.7754V25.3869C16.7754 25.663 16.5515 25.8869 16.2754 25.8869H13.7754C13.4993 25.8869 13.2754 25.663 13.2754 25.3869V17.8869H11.7754C11.4993 17.8869 11.2754 17.663 11.2754 17.3869V15.3869C11.2754 15.1108 11.4993 14.8869 11.7754 14.8869H13.2754V11.8869C13.2754 9.67776 15.0663 7.8869 17.2754 7.8869H20.7754C21.0515 7.8869 21.2754 8.11076 21.2754 8.3869V10.3869C21.2754 10.663 21.0515 10.8869 20.7754 10.8869Z" fill="#FFFFFF"/>
</svg>
