<svg width="33" height="33" viewBox="0 0 33 33" fill="none" xmlns="http://www.w3.org/2000/svg" role="presentation">
<rect x="0.275391" y="0.886902" width="32" height="32" rx="16" fill="#000000"/>
<path fill-rule="evenodd" clip-rule="evenodd" d="M25.2753 12.547V12.887C25.2761 13.9531 24.8514 14.9754 24.0953 15.7269L21.2753 18.5569C20.7492 19.078 19.9015 19.078 19.3754 18.5569L19.2754 18.4469C19.0848 18.2525 19.0848 17.9413 19.2754 17.7469L22.7153 14.307C23.0824 13.9263 23.2837 13.4157 23.2753 12.887V12.547C23.2757 12.0139 23.0634 11.5028 22.6853 11.127L22.0353 10.477C21.6595 10.099 21.1484 9.88659 20.6153 9.88701H20.2753C19.7423 9.88659 19.2312 10.099 18.8554 10.477L15.4154 13.887C15.221 14.0775 14.9098 14.0775 14.7154 13.887L14.6054 13.777C14.0843 13.2508 14.0843 12.4031 14.6054 11.877L17.4354 9.03702C18.1919 8.29195 19.2136 7.87823 20.2753 7.88704H20.6153C21.6765 7.8862 22.6945 8.30708 23.4453 9.05702L24.1053 9.71702C24.8552 10.4678 25.2761 11.4858 25.2753 12.547ZM12.9253 18.8269L18.2153 13.537C18.3092 13.4423 18.437 13.3891 18.5703 13.3891C18.7036 13.3891 18.8314 13.4423 18.9253 13.537L19.6253 14.237C19.7199 14.3309 19.7732 14.4586 19.7732 14.592C19.7732 14.7253 19.7199 14.8531 19.6253 14.947L14.3353 20.2369C14.2414 20.3316 14.1136 20.3848 13.9803 20.3848C13.847 20.3848 13.7192 20.3316 13.6253 20.2369L12.9253 19.5369C12.8307 19.443 12.7774 19.3152 12.7774 19.1819C12.7774 19.0486 12.8307 18.9208 12.9253 18.8269ZM17.8353 19.8869C17.6409 19.6963 17.3297 19.6963 17.1353 19.8869L13.7053 23.2969C13.3271 23.6774 12.8118 23.8899 12.2753 23.8868H11.9353C11.4023 23.8873 10.8912 23.6749 10.5154 23.2969L9.86536 22.6469C9.48733 22.2711 9.27495 21.7599 9.27537 21.2269V20.8869C9.27495 20.3538 9.48733 19.8427 9.86536 19.4669L13.2853 16.0269C13.4759 15.8325 13.4759 15.5214 13.2853 15.3269L13.1753 15.2169C12.6492 14.6958 11.8015 14.6958 11.2754 15.2169L8.45538 18.0469C7.69931 18.7985 7.27455 19.8208 7.27539 20.8869V21.2369C7.27721 22.2946 7.69788 23.3085 8.44538 24.0568L9.10537 24.7168C9.85615 25.4668 10.8742 25.8877 11.9353 25.8868H12.2753C13.3288 25.893 14.3421 25.4833 15.0953 24.7468L17.9453 21.8969C18.4664 21.3707 18.4664 20.523 17.9453 19.9969L17.8353 19.8869Z" fill="#FFFFFF"/>
</svg>
