<svg width="33" height="33" viewBox="0 0 33 33" fill="none" xmlns="http://www.w3.org/2000/svg" role="presentation">
<rect x="0.275391" y="0.886902" width="32" height="32" rx="16" fill="#000000"/>
<path d="M7.36504 7.97653H25.1858C25.4484 7.97653 25.7002 8.08084 25.8858 8.26651C26.0715 8.45218 26.1758 8.704 26.1758 8.96657V24.8072C26.1758 25.0698 26.0715 25.3216 25.8858 25.5073C25.7002 25.693 25.4484 25.7973 25.1858 25.7973H7.36504C7.10247 25.7973 6.85064 25.693 6.66498 25.5073C6.47931 25.3216 6.375 25.0698 6.375 24.8072V8.96657C6.375 8.704 6.47931 8.45218 6.66498 8.26651C6.85064 8.08084 7.10247 7.97653 7.36504 7.97653ZM16.3348 16.5731L9.98667 11.1823L8.70457 12.6911L16.3477 19.1808L23.8532 12.6862L22.5582 11.1882L16.3348 16.5731Z" fill="#FFFFFF"/>
</svg>
