<svg width="33" height="33" viewBox="0 0 33 33" fill="none" xmlns="http://www.w3.org/2000/svg" role="presentation">
<rect x="0.275391" y="0.886902" width="32" height="32" rx="16" fill="#000000"/>
<path d="M25.249 11.6043C24.7846 12.2238 24.2232 12.7642 23.5865 13.2047C23.5865 13.3665 23.5865 13.5283 23.5865 13.6992C23.5916 16.638 22.4177 19.456 20.328 21.5214C18.2382 23.5868 15.4074 24.7268 12.4703 24.6858C10.7722 24.6915 9.09592 24.3038 7.57267 23.553C7.49053 23.5171 7.43756 23.4359 7.43787 23.3462V23.2473C7.43787 23.1182 7.54248 23.0136 7.67152 23.0136C9.34067 22.9585 10.9503 22.3798 12.2726 21.3593C10.7618 21.3288 9.40244 20.4338 8.77685 19.0576C8.74526 18.9825 8.75509 18.8962 8.80282 18.8301C8.85054 18.764 8.92925 18.7276 9.0105 18.734C9.46967 18.7801 9.93343 18.7374 10.3764 18.6081C8.70864 18.2619 7.45546 16.8773 7.27611 15.1826C7.26974 15.1013 7.30617 15.0226 7.37225 14.9748C7.43832 14.9271 7.52449 14.9172 7.59963 14.9489C8.04719 15.1464 8.53034 15.2504 9.01949 15.2545C7.55809 14.2954 6.92686 12.471 7.4828 10.8131C7.54019 10.652 7.67806 10.533 7.84575 10.4998C8.01343 10.4667 8.18621 10.5242 8.30057 10.6513C10.2726 12.7502 12.9823 14.0009 15.8581 14.1397C15.7845 13.8458 15.7483 13.5437 15.7503 13.2406C15.7772 11.6516 16.7604 10.2361 18.2396 9.65677C19.7187 9.07744 21.4011 9.44893 22.4992 10.5973C23.2476 10.4548 23.9712 10.2034 24.6469 9.85111C24.6964 9.82021 24.7592 9.82021 24.8087 9.85111C24.8396 9.90063 24.8396 9.96342 24.8087 10.0129C24.4814 10.7624 23.9285 11.391 23.2271 11.8111C23.8413 11.7399 24.4447 11.595 25.0244 11.3795C25.0732 11.3463 25.1373 11.3463 25.1861 11.3795C25.227 11.3982 25.2576 11.434 25.2697 11.4773C25.2818 11.5206 25.2742 11.5671 25.249 11.6043Z" fill="#FFFFFF"/>
</svg>
