<svg width="33" height="33" viewBox="0 0 33 33" fill="none" xmlns="http://www.w3.org/2000/svg" role="presentation">
<rect x="0.275391" y="0.886902" width="32" height="32" rx="16" fill="#000000"/>
<path fill-rule="evenodd" clip-rule="evenodd" d="M9.27539 7.8869H23.2754C24.38 7.8869 25.2754 8.78233 25.2754 9.8869V23.8869C25.2754 24.9915 24.38 25.8869 23.2754 25.8869H9.27539C8.17082 25.8869 7.27539 24.9915 7.27539 23.8869V9.8869C7.27539 8.78233 8.17082 7.8869 9.27539 7.8869ZM12.2754 22.8869C12.5515 22.8869 12.7754 22.663 12.7754 22.3869V15.3869C12.7754 15.1108 12.5515 14.8869 12.2754 14.8869H10.7754C10.4993 14.8869 10.2754 15.1108 10.2754 15.3869V22.3869C10.2754 22.663 10.4993 22.8869 10.7754 22.8869H12.2754ZM11.5254 13.8869C10.697 13.8869 10.0254 13.2153 10.0254 12.3869C10.0254 11.5585 10.697 10.8869 11.5254 10.8869C12.3538 10.8869 13.0254 11.5585 13.0254 12.3869C13.0254 13.2153 12.3538 13.8869 11.5254 13.8869ZM21.7754 22.8869C22.0515 22.8869 22.2754 22.663 22.2754 22.3869V17.7869C22.3079 16.1977 21.133 14.8414 19.5554 14.6469C18.4524 14.5462 17.3837 15.0613 16.7754 15.9869V15.3869C16.7754 15.1108 16.5515 14.8869 16.2754 14.8869H14.7754C14.4993 14.8869 14.2754 15.1108 14.2754 15.3869V22.3869C14.2754 22.663 14.4993 22.8869 14.7754 22.8869H16.2754C16.5515 22.8869 16.7754 22.663 16.7754 22.3869V18.6369C16.7754 17.8085 17.447 17.1369 18.2754 17.1369C19.1038 17.1369 19.7754 17.8085 19.7754 18.6369V22.3869C19.7754 22.663 19.9993 22.8869 20.2754 22.8869H21.7754Z" fill="#FFFFFF"/>
</svg>
