<svg version="1.2" xmlns="http://www.w3.org/2000/svg" viewBox="0 0 33 33" width="33" height="33">
	<title>facebook-svg</title>
	<style>
		.s0 { fill: #000000 } 
		.s1 { fill: #fafafa } 
	</style>
	<path id="Layer" class="s0" d="m0.3 16.9c0-8.8 7.1-16 16-16 8.8 0 16 7.2 16 16 0 8.8-7.2 16-16 16-8.9 0-16-7.2-16-16z"/>
	<path id="Layer" fill-rule="evenodd" class="s1" d="m8 8h2.6 2.6l2.2 3.2c1.2 1.8 2.2 3.3 2.2 3.3 0.1 0 0.1 0 0.4-0.4 0.8-0.9 1-1.1 1.1-1.3 0.1-0.1 0.2-0.2 0.2-0.2 0 0 0.4-0.4 0.7-0.9 0.4-0.4 0.8-0.9 0.9-1 0.1 0 0.2-0.2 0.2-0.2 0.1-0.1 0.2-0.2 0.3-0.4 0.3-0.2 1.1-1.2 1.5-1.7l0.4-0.4h0.7c0.7 0 0.8 0 0.8 0-0.1 0.1-0.3 0.4-0.7 0.8-0.3 0.3-0.8 0.9-1.1 1.3-0.3 0.4-0.6 0.7-0.7 0.8 0 0-0.3 0.3-0.5 0.6-0.3 0.3-0.7 0.8-1.1 1.2-2 2.4-2.3 2.8-2.3 2.8-0.1 0 0.2 0.5 2.5 3.8 3.2 4.6 4.4 6.4 4.4 6.4 0.1 0.1-0.4 0.1-2.5 0.1h-2.6l-0.1-0.1c0-0.1-1-1.6-2.3-3.5-1.3-1.8-2.3-3.3-2.3-3.3-0.1 0-0.2 0.2-0.4 0.4-0.2 0.2-0.4 0.5-0.4 0.5 0 0-0.3 0.3-0.6 0.7-0.4 0.4-0.7 0.7-0.7 0.8-0.1 0-0.1 0.1-0.2 0.2-0.1 0.1-1.6 1.9-1.9 2.1 0 0.1-0.5 0.7-0.9 1.2l-0.9 1h-0.7q-0.8 0-0.8-0.1c0 0 0.1 0 0.2-0.1 0-0.1 0.4-0.6 0.9-1.1 0.8-0.9 0.9-1.1 2-2.3 0.3-0.4 0.8-1 1.1-1.3 0.3-0.3 0.7-0.8 0.9-1.1 0.3-0.3 0.7-0.8 0.9-1 0.2-0.3 0.5-0.6 0.6-0.7 0.1-0.1 0.2-0.2 0.2-0.2 0 0-0.2-0.3-0.4-0.6-0.2-0.3-1.7-2.4-3.3-4.8-1.6-2.3-2.9-4.3-3-4.3zm2.1 1.2c0.1 0 0.5 0.7 1.1 1.5 1.1 1.5 5.3 7.6 8.1 11.6 0.9 1.2 1.6 2.3 1.6 2.3 0 0 0.3 0 1.2 0h1.2l-3.1-4.4c-1.7-2.4-4.1-5.9-5.4-7.7l-2.3-3.4h-2.4z"/>
</svg>