<svg width="19" height="20" viewBox="0 0 19 20" fill="none" xmlns="http://www.w3.org/2000/svg">
<path d="M17.2169 18.8951L11.3416 13.0115C10.817 13.4317 10.2137 13.7644 9.53176 14.0096C8.8498 14.2547 8.12413 14.3773 7.35474 14.3773C5.44875 14.3773 3.83583 13.7165 2.51598 12.3947C1.19543 11.0723 0.535156 9.45673 0.535156 7.54803C0.535156 5.63934 1.19543 4.02377 2.51598 2.70134C3.83583 1.37961 5.44875 0.71875 7.35474 0.71875C9.26073 0.71875 10.874 1.37961 12.1945 2.70134C13.5144 4.02377 14.1743 5.63934 14.1743 7.54803C14.1743 8.31852 14.0519 9.04522 13.8071 9.72815C13.5623 10.4111 13.2301 11.0152 12.8104 11.5405L18.712 17.4505C18.9043 17.6431 19.0005 17.8795 19.0005 18.1597C19.0005 18.4399 18.8956 18.685 18.6857 18.8951C18.4934 19.0878 18.2486 19.1841 17.9513 19.1841C17.6541 19.1841 17.4093 19.0878 17.2169 18.8951ZM7.35474 12.276C8.6662 12.276 9.78111 11.8165 10.6995 10.8975C11.6172 9.97786 12.076 8.86136 12.076 7.54803C12.076 6.23471 11.6172 5.11821 10.6995 4.19853C9.78111 3.27956 8.6662 2.82007 7.35474 2.82007C6.04328 2.82007 4.92837 3.27956 4.01 4.19853C3.09232 5.11821 2.63349 6.23471 2.63349 7.54803C2.63349 8.86136 3.09232 9.97786 4.01 10.8975C4.92837 11.8165 6.04328 12.276 7.35474 12.276Z" fill="currentColor"/>
</svg>
